<mxfile host="app.diagrams.net" modified="2023-10-11T11:08:13.444Z" agent="Mozilla/5.0 (Windows NT 10.0; Win64; x64) AppleWebKit/537.36 (KHTML, like Gecko) Chrome/117.0.0.0 Safari/537.36" etag="IKwy-8OoaVMksEb-Ab-Q" version="22.0.4" type="device">
  <diagram name="Page-1" id="S0Yn9n8QYlELoRgeTOrX">
    <mxGraphModel dx="1050" dy="566" grid="1" gridSize="10" guides="1" tooltips="1" connect="1" arrows="1" fold="1" page="0" pageScale="1" pageWidth="1100" pageHeight="850" math="0" shadow="0">
      <root>
        <mxCell id="0" />
        <mxCell id="1" parent="0" />
        <mxCell id="AnbKV2oYEn-lJLv7nBKk-5" style="edgeStyle=orthogonalEdgeStyle;rounded=0;orthogonalLoop=1;jettySize=auto;html=1;exitX=1;exitY=0.5;exitDx=0;exitDy=0;entryX=0;entryY=0.5;entryDx=0;entryDy=0;" edge="1" parent="1" source="AnbKV2oYEn-lJLv7nBKk-2" target="AnbKV2oYEn-lJLv7nBKk-4">
          <mxGeometry relative="1" as="geometry" />
        </mxCell>
        <mxCell id="AnbKV2oYEn-lJLv7nBKk-2" value="CreateAccount" style="rounded=0;whiteSpace=wrap;html=1;" vertex="1" parent="1">
          <mxGeometry x="200" y="240" width="120" height="80" as="geometry" />
        </mxCell>
        <mxCell id="AnbKV2oYEn-lJLv7nBKk-7" style="edgeStyle=orthogonalEdgeStyle;rounded=0;orthogonalLoop=1;jettySize=auto;html=1;exitX=0.5;exitY=1;exitDx=0;exitDy=0;entryX=0.5;entryY=0;entryDx=0;entryDy=0;startArrow=classic;startFill=1;" edge="1" parent="1" source="AnbKV2oYEn-lJLv7nBKk-4" target="AnbKV2oYEn-lJLv7nBKk-6">
          <mxGeometry relative="1" as="geometry" />
        </mxCell>
        <mxCell id="AnbKV2oYEn-lJLv7nBKk-9" style="edgeStyle=orthogonalEdgeStyle;rounded=0;orthogonalLoop=1;jettySize=auto;html=1;exitX=0.5;exitY=0;exitDx=0;exitDy=0;entryX=0.5;entryY=1;entryDx=0;entryDy=0;startArrow=classic;startFill=1;" edge="1" parent="1" source="AnbKV2oYEn-lJLv7nBKk-4" target="AnbKV2oYEn-lJLv7nBKk-8">
          <mxGeometry relative="1" as="geometry" />
        </mxCell>
        <mxCell id="AnbKV2oYEn-lJLv7nBKk-14" style="rounded=0;orthogonalLoop=1;jettySize=auto;html=1;exitX=1;exitY=0.25;exitDx=0;exitDy=0;entryX=0;entryY=0.5;entryDx=0;entryDy=0;startArrow=classic;startFill=1;" edge="1" parent="1" source="AnbKV2oYEn-lJLv7nBKk-4" target="AnbKV2oYEn-lJLv7nBKk-11">
          <mxGeometry relative="1" as="geometry" />
        </mxCell>
        <mxCell id="AnbKV2oYEn-lJLv7nBKk-15" style="rounded=0;orthogonalLoop=1;jettySize=auto;html=1;exitX=1;exitY=0.75;exitDx=0;exitDy=0;entryX=0;entryY=0.5;entryDx=0;entryDy=0;startArrow=classic;startFill=1;" edge="1" parent="1" source="AnbKV2oYEn-lJLv7nBKk-4" target="AnbKV2oYEn-lJLv7nBKk-13">
          <mxGeometry relative="1" as="geometry" />
        </mxCell>
        <mxCell id="AnbKV2oYEn-lJLv7nBKk-4" value="Home" style="rounded=0;whiteSpace=wrap;html=1;" vertex="1" parent="1">
          <mxGeometry x="400" y="240" width="120" height="80" as="geometry" />
        </mxCell>
        <mxCell id="AnbKV2oYEn-lJLv7nBKk-6" value="Authors" style="rounded=0;whiteSpace=wrap;html=1;" vertex="1" parent="1">
          <mxGeometry x="400" y="400" width="120" height="80" as="geometry" />
        </mxCell>
        <mxCell id="AnbKV2oYEn-lJLv7nBKk-8" value="About" style="rounded=0;whiteSpace=wrap;html=1;" vertex="1" parent="1">
          <mxGeometry x="400" y="80" width="120" height="80" as="geometry" />
        </mxCell>
        <mxCell id="AnbKV2oYEn-lJLv7nBKk-20" style="rounded=0;orthogonalLoop=1;jettySize=auto;html=1;exitX=1;exitY=0.5;exitDx=0;exitDy=0;entryX=0;entryY=0.25;entryDx=0;entryDy=0;" edge="1" parent="1" source="AnbKV2oYEn-lJLv7nBKk-11" target="AnbKV2oYEn-lJLv7nBKk-19">
          <mxGeometry relative="1" as="geometry" />
        </mxCell>
        <mxCell id="AnbKV2oYEn-lJLv7nBKk-11" value="Lobby" style="rounded=0;whiteSpace=wrap;html=1;" vertex="1" parent="1">
          <mxGeometry x="600" y="160" width="120" height="80" as="geometry" />
        </mxCell>
        <mxCell id="AnbKV2oYEn-lJLv7nBKk-13" value="Rankings" style="rounded=0;whiteSpace=wrap;html=1;" vertex="1" parent="1">
          <mxGeometry x="600" y="320" width="120" height="80" as="geometry" />
        </mxCell>
        <mxCell id="AnbKV2oYEn-lJLv7nBKk-17" style="edgeStyle=orthogonalEdgeStyle;rounded=0;orthogonalLoop=1;jettySize=auto;html=1;exitX=0.5;exitY=0;exitDx=0;exitDy=0;entryX=0.5;entryY=1;entryDx=0;entryDy=0;startArrow=classic;startFill=1;" edge="1" parent="1" source="AnbKV2oYEn-lJLv7nBKk-16" target="AnbKV2oYEn-lJLv7nBKk-2">
          <mxGeometry relative="1" as="geometry" />
        </mxCell>
        <mxCell id="AnbKV2oYEn-lJLv7nBKk-18" style="rounded=0;orthogonalLoop=1;jettySize=auto;html=1;exitX=1;exitY=0;exitDx=0;exitDy=0;entryX=0;entryY=0.75;entryDx=0;entryDy=0;startArrow=classic;startFill=1;" edge="1" parent="1" source="AnbKV2oYEn-lJLv7nBKk-16" target="AnbKV2oYEn-lJLv7nBKk-4">
          <mxGeometry relative="1" as="geometry" />
        </mxCell>
        <mxCell id="AnbKV2oYEn-lJLv7nBKk-28" style="rounded=0;orthogonalLoop=1;jettySize=auto;html=1;exitX=0;exitY=0.5;exitDx=0;exitDy=0;entryX=1;entryY=0.75;entryDx=0;entryDy=0;startArrow=classic;startFill=1;" edge="1" parent="1" source="AnbKV2oYEn-lJLv7nBKk-16" target="AnbKV2oYEn-lJLv7nBKk-24">
          <mxGeometry relative="1" as="geometry" />
        </mxCell>
        <mxCell id="AnbKV2oYEn-lJLv7nBKk-16" value="Login" style="rounded=0;whiteSpace=wrap;html=1;" vertex="1" parent="1">
          <mxGeometry x="200" y="400" width="120" height="80" as="geometry" />
        </mxCell>
        <mxCell id="AnbKV2oYEn-lJLv7nBKk-21" style="edgeStyle=orthogonalEdgeStyle;rounded=0;orthogonalLoop=1;jettySize=auto;html=1;exitX=0;exitY=0.5;exitDx=0;exitDy=0;entryX=1;entryY=0.5;entryDx=0;entryDy=0;" edge="1" parent="1" source="AnbKV2oYEn-lJLv7nBKk-19" target="AnbKV2oYEn-lJLv7nBKk-4">
          <mxGeometry relative="1" as="geometry" />
        </mxCell>
        <mxCell id="AnbKV2oYEn-lJLv7nBKk-19" value="Game" style="rounded=0;whiteSpace=wrap;html=1;" vertex="1" parent="1">
          <mxGeometry x="800" y="240" width="120" height="80" as="geometry" />
        </mxCell>
        <mxCell id="AnbKV2oYEn-lJLv7nBKk-23" style="rounded=0;orthogonalLoop=1;jettySize=auto;html=1;exitX=1;exitY=0.5;exitDx=0;exitDy=0;entryX=0;entryY=0.25;entryDx=0;entryDy=0;startArrow=classic;startFill=1;" edge="1" parent="1" source="AnbKV2oYEn-lJLv7nBKk-22" target="AnbKV2oYEn-lJLv7nBKk-4">
          <mxGeometry relative="1" as="geometry" />
        </mxCell>
        <mxCell id="AnbKV2oYEn-lJLv7nBKk-22" value="Account" style="rounded=0;whiteSpace=wrap;html=1;" vertex="1" parent="1">
          <mxGeometry x="200" y="80" width="120" height="80" as="geometry" />
        </mxCell>
        <mxCell id="AnbKV2oYEn-lJLv7nBKk-27" style="rounded=0;orthogonalLoop=1;jettySize=auto;html=1;exitX=1;exitY=0.25;exitDx=0;exitDy=0;entryX=0;entryY=0.5;entryDx=0;entryDy=0;startArrow=classic;startFill=1;" edge="1" parent="1" source="AnbKV2oYEn-lJLv7nBKk-24" target="AnbKV2oYEn-lJLv7nBKk-2">
          <mxGeometry relative="1" as="geometry" />
        </mxCell>
        <mxCell id="AnbKV2oYEn-lJLv7nBKk-29" style="edgeStyle=orthogonalEdgeStyle;rounded=0;orthogonalLoop=1;jettySize=auto;html=1;exitX=0.5;exitY=0;exitDx=0;exitDy=0;entryX=0.5;entryY=0;entryDx=0;entryDy=0;startArrow=classic;startFill=1;" edge="1" parent="1" source="AnbKV2oYEn-lJLv7nBKk-24" target="AnbKV2oYEn-lJLv7nBKk-8">
          <mxGeometry relative="1" as="geometry">
            <Array as="points">
              <mxPoint x="60" y="40" />
              <mxPoint x="460" y="40" />
            </Array>
          </mxGeometry>
        </mxCell>
        <mxCell id="AnbKV2oYEn-lJLv7nBKk-30" style="edgeStyle=orthogonalEdgeStyle;rounded=0;orthogonalLoop=1;jettySize=auto;html=1;exitX=0.5;exitY=1;exitDx=0;exitDy=0;entryX=0.5;entryY=1;entryDx=0;entryDy=0;startArrow=classic;startFill=1;" edge="1" parent="1" source="AnbKV2oYEn-lJLv7nBKk-24" target="AnbKV2oYEn-lJLv7nBKk-6">
          <mxGeometry relative="1" as="geometry">
            <Array as="points">
              <mxPoint x="60" y="520" />
              <mxPoint x="460" y="520" />
            </Array>
          </mxGeometry>
        </mxCell>
        <mxCell id="AnbKV2oYEn-lJLv7nBKk-24" value="Start" style="rounded=0;whiteSpace=wrap;html=1;" vertex="1" parent="1">
          <mxGeometry y="320" width="120" height="80" as="geometry" />
        </mxCell>
      </root>
    </mxGraphModel>
  </diagram>
</mxfile>
